#!OML:ASF F:\VICON\USERDATA\INSTALL\rory3\rory3.ASF
:FULLY-SPECIFIED
:DEGREES
936
root 0.224478 17.5338 -0.261441 9.62568 1.43932 2.06237
lowerback -0.0876433 0.48746 1.46646
upperback -1.83752 0.705006 2.54146
thorax -1.84936 0.351776 1.77426
lowerneck -6.04097 -16.9988 -22.217
upperneck 0.968692 -24.0337 31.4539
head 8.45887 -11.1975 10.7562
rclavicle 0 -1.27222e-014
rhumerus -34.3817 30.2287 -101.325
rradius 22.9944
rwrist 31.1286
rhand -10.0623 19.9361
rfingers 7.12502
rthumb 15.9236 -9.42931
lclavicle 0 -1.27222e-014
lhumerus -26.4613 -14.9685 99.4264
lradius 15.799
lwrist -18.8812
lhand 1.79076 16.0375
lfingers 7.12502
lthumb 27.3045 44.0803
rfemur -4.69722 15.4495 15.0714
rtibia 5.74187
rfoot -7.98944 -17.8611
rtoes -14.566
lfemur -6.28807 -14.3449 -19.942
ltibia 5.92171
lfoot -8.8346 6.14629
ltoes -15.4004
937
root 0.230862 17.5348 -0.274996 9.66731 1.49805 2.04577
lowerback -0.0426692 0.474701 1.53011
upperback -1.82176 0.690049 2.57181
thorax -1.85784 0.343527 1.7697
lowerneck -6.02711 -16.9616 -22.2045
upperneck 1.03709 -24.0024 31.4727
head 8.47165 -11.181 10.7739
rclavicle -1.88845e-015 -4.77083e-015
rhumerus -34.2869 30.3378 -101.387
rradius 22.8118
rwrist 31.9042
rhand -10.4665 19.9196
rfingers 7.12502
rthumb 15.5344 -9.4764
lclavicle -1.88845e-015 -4.77083e-015
lhumerus -26.6301 -16.9838 100.159
lradius 16.413
lwrist -16.9176
lhand 2.53258 16.5829
lfingers 7.12502
lthumb 28.0138 44.512
rfemur -4.75213 15.3864 15.0453
rtibia 5.67731
rfoot -7.92533 -17.8457
rtoes -14.3679
lfemur -6.42611 -14.4006 -19.9057
ltibia 5.98693
lfoot -8.85422 6.03009
ltoes -15.3558
938
root 0.237057 17.5361 -0.285806 9.70075 1.54064 1.99926
lowerback -0.0673573 0.483487 1.62393
upperback -1.7711 0.700568 2.59349
thorax -1.79135 0.347606 1.73954
lowerneck -6.07532 -16.943 -22.1753
upperneck 1.112 -23.9931 31.5078
head 8.50472 -11.1683 10.7842
rclavicle -2.25621e-014 -9.54166e-015
rhumerus -34.1179 30.3909 -101.464
rradius 22.5562
rwrist 32.3967
rhand -10.981 19.815
rfingers 7.12502
rthumb 15.0388 -9.61882
lclavicle -2.25621e-014 -9.54166e-015
lhumerus -26.8 -18.9132 100.818
lradius 16.9887
lwrist -15.2414
lhand 3.30395 16.8629
lfingers 7.12502
lthumb 28.751 44.6692
rfemur -4.78903 15.3456 15.0535
rtibia 5.62345
rfoot -7.92443 -17.7977
rtoes -14.3232
lfemur -6.54273 -14.4353 -19.8451
ltibia 6.04209
lfoot -8.84128 6.08715
ltoes -15.7849
939
root 0.241778 17.5368 -0.296328 9.70665 1.53562 2.05034
lowerback -0.0722612 0.502475 1.57267
upperback -1.71281 0.723501 2.60104
thorax -1.72984 0.360012 1.77587
lowerneck -6.11411 -16.9259 -22.1513
upperneck 1.19647 -23.98 31.4896
head 8.52809 -11.1552 10.7771
rclavicle 2.0276e-014 -9.54166e-015
rhumerus -34.0055 30.4889 -101.561
rradius 22.3222
rwrist 32.714
rhand -11.5556 19.6205
rfingers 7.12502
rthumb 14.4852 -9.85393
lclavicle 2.0276e-014 -9.54166e-015
lhumerus -26.9996 -20.8034 101.504
lradius 17.4244
lwrist -13.7437
lhand 3.69978 16.8638
lfingers 7.12502
lthumb 29.129 44.6053
rfemur -4.8321 15.3368 14.96
rtibia 5.61222
rfoot -7.90004 -17.7644
rtoes -14.449
lfemur -6.61609 -14.4409 -19.9076
ltibia 6.06752
lfoot -8.77113 6.16629
ltoes -16.5549
940
root 0.247337 17.5362 -0.307436 9.71201 1.53326 2.05805
lowerback -0.0622105 0.536592 1.59589
upperback -1.65438 0.767665 2.60037
thorax -1.67602 0.381814 1.76161
lowerneck -6.14325 -16.9367 -22.0911
upperneck 1.27474 -24.0067 31.4491
head 8.54934 -11.1616 10.7452
rclavicle -2.33572e-014 -2.8625e-014
rhumerus -33.8372 30.4721 -101.569
rradius 22.0713
rwrist 33.0569
rhand -11.9983 19.5824
rfingers 7.12502
rthumb 14.0587 -9.92207
lclavicle -2.33572e-014 -2.8625e-014
lhumerus -27.1212 -22.3386 102.062
lradius 17.7404
lwrist -12.6483
lhand 3.88448 16.7976
lfingers 7.12502
lthumb 29.3054 44.5084
rfemur -4.90958 15.3324 14.9113
rtibia 5.65672
rfoot -7.86938 -17.7368
rtoes -14.4622
lfemur -6.6593 -14.4416 -19.9254
ltibia 6.04395
lfoot -8.66804 6.15231
ltoes -16.8545
941
root 0.251912 17.5365 -0.318916 9.74633 1.5741 2.06054
lowerback -0.0693412 0.534348 1.5822
upperback -1.62175 0.76386 2.64116
thorax -1.63922 0.380501 1.81145
lowerneck -6.18033 -16.9143 -22.0836
upperneck 1.41577 -23.9898 31.378
head 8.58095 -11.1457 10.7238
rclavicle 2.68359e-015 -2.38542e-014
rhumerus -33.7945 30.7693 -101.7
rradius 21.8612
rwrist 33.0956
rhand -12.495 19.4483
rfingers 7.12502
rthumb 13.5799 -10.0888
lclavicle 2.68359e-015 -2.38542e-014
lhumerus -27.3518 -23.8967 102.708
lradius 18.2226
lwrist -11.3227
lhand 3.96636 16.9202
lfingers 7.12502
lthumb 29.3836 44.6173
rfemur -5.05508 15.2853 14.8873
rtibia 5.77076
rfoot -7.86655 -17.7337
rtoes -14.5141
lfemur -6.7266 -14.4809 -19.9006
ltibia 5.97263
lfoot -8.52526 6.10562
ltoes -16.678
